HIERARCHY
ROOT Hips
{
    OFFSET 0.000000 0.000000 0.000000
    CHANNELS 6 Xposition Yposition Zposition Zrotation Xrotation Yrotation
    JOINT Spine
    {
        OFFSET -0.000000 8.185774 0.000000
        CHANNELS 3 Zrotation Xrotation Yrotation
        JOINT Spine1
        {
            OFFSET -0.000000 23.949169 0.000000
            CHANNELS 3 Zrotation Xrotation Yrotation
            JOINT Neck
            {
                OFFSET -0.000000 23.850817 2.168256
                CHANNELS 3 Zrotation Xrotation Yrotation
                JOINT Head
                {
                    OFFSET -0.000000 13.975711 -1.996530
                    CHANNELS 3 Zrotation Xrotation Yrotation
                    End Site
                    {
                        OFFSET -0.000000 24.956627 0.000000
                    }
                }
            }
            JOINT LeftShoulder
            {
                OFFSET 3.979389 22.161966 -0.249083
                CHANNELS 3 Zrotation Xrotation Yrotation
                JOINT LeftArm
                {
                    OFFSET 10.812937 0.000000 0.000000
                    CHANNELS 3 Zrotation Xrotation Yrotation
                    JOINT LeftForeArm
                    {
                        OFFSET 31.697208 0.000000 0.000000
                        CHANNELS 3 Zrotation Xrotation Yrotation
                        JOINT LeftHand
                        {
                            OFFSET 27.047384 0.000000 0.000000
                            CHANNELS 3 Zrotation Xrotation Yrotation
                            End Site
                            {
                                OFFSET 14.973977 0.000000 0.000000
                            }
                        }
                    }
                }
            }
            JOINT RightShoulder
            {
                OFFSET -4.006446 22.161966 -0.249083
                CHANNELS 3 Zrotation Xrotation Yrotation
                JOINT RightArm
                {
                    OFFSET -10.812937 0.000000 0.000000
                    CHANNELS 3 Zrotation Xrotation Yrotation
                    JOINT RightForeArm
                    {
                        OFFSET -31.697208 0.000000 0.000000
                        CHANNELS 3 Zrotation Xrotation Yrotation
                        JOINT RightHand
                        {
                            OFFSET -27.047384 0.000000 0.000000
                            CHANNELS 3 Zrotation Xrotation Yrotation
                            End Site
                            {
                                OFFSET -14.973977 0.000000 0.000000
                            }
                        }
                    }
                }
            }
        }
    }
    JOINT LeftUpLeg
    {
        OFFSET 9.982651 0.000000 0.000000
        CHANNELS 3 Zrotation Xrotation Yrotation
        JOINT LeftLeg
        {
            OFFSET -0.000000 -38.511635 0.000000
            CHANNELS 3 Zrotation Xrotation Yrotation
            JOINT LeftFoot
            {
                OFFSET -0.000000 -44.789326 0.000000
                CHANNELS 3 Zrotation Xrotation Yrotation
                JOINT LeftToeBase
                {
                    OFFSET -0.000000 -6.488723 14.973977
                    CHANNELS 3 Zrotation Xrotation Yrotation
                    End Site
                    {
                        OFFSET -0.000000 0.000000 3.993060
                    }
                }
            }
        }
    }
    JOINT RightUpLeg
    {
        OFFSET -9.982651 0.000000 0.000000
        CHANNELS 3 Zrotation Xrotation Yrotation
        JOINT RightLeg
        {
            OFFSET -0.000000 -38.511635 0.000000
            CHANNELS 3 Zrotation Xrotation Yrotation
            JOINT RightFoot
            {
                OFFSET -0.000000 -44.789326 0.000000
                CHANNELS 3 Zrotation Xrotation Yrotation
                JOINT RightToeBase
                {
                    OFFSET -0.000000 -6.488723 14.973977
                    CHANNELS 3 Zrotation Xrotation Yrotation
                    End Site
                    {
                        OFFSET -0.000000 0.000000 3.993060
                    }
                }
            }
        }
    }
}
MOTION
Frames:    9
Frame Time:    0.008333
-9.720501    94.355774    216.307693    0.045839    -0.665763    176.748917    0.517445    -6.253244    0.083337    -0.316366    -0.661587    0.052911    1.597995    20.091677    -5.277574    -0.528655    1.753947    -5.501870    14.609109    0.225225    0.073404    -12.780179    -0.226151    1.328215    1.299810    1.458813    5.968676    -8.766696    1.568151    -2.310330    -17.326187    -1.630248    -0.163389    19.693922    -8.705801    -2.457428    0.351394    5.675382    7.055788    -11.621148    6.984990    -13.103310    4.109256    4.617795    -4.295730    -2.403241    2.937398    11.426772    -3.756338    -6.449587    11.300946    0.000000    0.000000    0.000000    -1.478405    -0.327080    -3.966791    -0.531811    7.804849    5.737789    2.724834    -6.597397    -20.936966    0.000000    0.000000    0.000000    
-9.745851    94.354050    216.336960    0.032895    -0.664830    176.825867    0.529062    -6.222590    0.064421    -0.346440    -0.708922    0.034697    1.554116    20.035139    -5.270534    -0.558554    1.783419    -5.500648    14.625128    0.191890    0.093720    -12.743776    -0.182927    1.364934    1.316560    1.395080    5.933574    -8.568708    1.501763    -2.334667    -17.325638    -1.640681    -0.182236    19.661077    -8.754935    -2.495898    0.346998    5.735572    7.037326    -11.641676    7.051714    -13.142323    4.082788    4.640601    -4.414084    -2.394226    2.834900    11.454709    -3.751644    -6.412303    11.323406    0.000000    0.000000    0.000000    -1.486747    -0.328909    -4.146951    -0.578538    7.784379    5.733168    2.744810    -6.597325    -20.842245    0.000000    0.000000    0.000000    
-9.781372    94.358253    216.383148    0.010556    -0.688417    176.938263    0.541909    -6.199482    0.029346    -0.373190    -0.769134    -0.007951    1.466876    20.021961    -5.221367    -0.549641    1.724234    -5.451966    14.617017    0.182543    0.101478    -12.706975    -0.203115    1.412312    1.388729    1.626328    5.968704    -8.605004    1.736202    -2.422749    -17.311649    -1.610952    -0.191206    19.597164    -8.843843    -2.511286    0.350845    5.790662    7.000887    -11.676386    7.111469    -13.151169    4.031673    4.586487    -4.552149    -2.361743    2.798213    11.463207    -3.743763    -6.387520    11.353734    0.000000    0.000000    0.000000    -1.520215    -0.358828    -4.373223    -0.615394    7.753847    5.722650    2.772573    -6.563481    -20.712624    0.000000    0.000000    0.000000    
-9.807427    94.360367    216.423340    0.009472    -0.708125    177.034561    0.536143    -6.188522    0.014993    -0.360931    -0.795179    -0.016727    1.437889    19.972672    -5.212256    -0.571819    1.678864    -5.447237    14.625352    0.189812    0.113191    -12.815478    0.051766    1.341747    1.632260    1.520956    6.086817    -8.576500    1.630289    -2.615395    -17.309950    -1.628455    -0.225335    19.540777    -8.915558    -2.578022    0.368805    5.864014    6.965488    -11.691781    7.181822    -13.116218    4.039287    4.547043    -4.637654    -2.387796    2.757191    11.458199    -3.701150    -6.370121    11.352548    0.000000    0.000000    0.000000    -1.531503    -0.365355    -4.562229    -0.634036    7.704922    5.766461    2.814692    -6.533341    -20.650503    0.000000    0.000000    0.000000    
-9.831600    94.367638    216.461609    0.017625    -0.699264    177.157990    0.542912    -6.181985    -0.011465    -0.365237    -0.747367    -0.044022    1.412451    19.853546    -5.198084    -0.593955    1.675337    -5.437870    14.669066    0.185267    0.115302    -12.826004    -0.021636    1.340252    1.595963    1.237728    6.007415    -8.199591    1.344332    -2.655386    -17.307045    -1.615782    -0.279851    19.516142    -8.955203    -2.606051    0.357340    5.868843    6.952172    -11.734620    7.193026    -13.123023    4.061110    4.531867    -4.746201    -2.415436    2.718918    11.424807    -3.680129    -6.339016    11.363786    0.000000    0.000000    0.000000    -1.511088    -0.204781    -3.588293    -0.514381    7.423998    4.721330    2.811617    -6.432431    -20.716169    0.000000    0.000000    0.000000    
-9.854352    94.375404    216.496445    0.028183    -0.682534    177.269958    0.544605    -6.158761    -0.025773    -0.361804    -0.722917    -0.057673    1.428654    19.813475    -5.216600    -0.645050    1.576397    -5.464190    14.704326    0.181284    0.116796    -12.722397    -0.303292    1.386468    1.438284    1.633236    5.890499    -8.234433    1.749548    -2.644091    -17.286615    -1.610147    -0.322962    19.467924    -9.018829    -2.662478    0.381863    5.877009    6.929204    -11.809319    7.209153    -13.130427    4.083179    4.511522    -4.834787    -2.447537    2.705501    11.455227    -3.656558    -6.309835    11.327211    0.000000    0.000000    0.000000    -1.522761    -0.134315    -3.701901    -0.494722    7.315248    4.676275    2.847789    -6.376809    -20.667780    0.000000    0.000000    0.000000    
-9.871842    94.376694    216.532761    0.046551    -0.687891    177.382965    0.544543    -6.171580    -0.046620    -0.340582    -0.670289    -0.078609    1.427277    19.761326    -5.221534    -0.692563    1.464786    -5.476830    14.728754    0.179522    0.128262    -12.893647    0.120256    1.329235    1.740470    1.464518    5.957896    -8.365575    1.578505    -2.796286    -17.273170    -1.604345    -0.364668    19.436264    -9.061836    -2.706047    0.397236    5.862275    6.913404    -11.940722    7.209570    -13.138227    4.121100    4.447301    -4.899103    -2.483494    2.731992    11.415776    -3.633638    -6.316996    11.309214    0.000000    0.000000    0.000000    -1.523537    -0.112292    -3.819908    -0.477994    7.268278    4.771115    2.837586    -6.375525    -20.726734    0.000000    0.000000    0.000000    
-9.891301    94.386040    216.552551    0.051818    -0.637448    177.487839    0.538260    -6.191854    -0.078332    -0.334453    -0.505617    -0.109279    1.403167    19.643005    -5.212425    -0.702110    1.402145    -5.471342    14.766062    0.116334    0.173342    -12.793283    -0.153941    1.388120    1.517140    1.633137    5.781261    -8.257237    1.754850    -2.747892    -17.263842    -1.659110    -0.394628    19.420496    -9.097154    -2.752984    0.407007    5.879506    6.911356    -11.974045    7.232182    -13.158554    4.133986    4.456821    -4.982252    -2.506271    2.750082    11.356898    -3.608108    -6.300520    11.332841    0.000000    0.000000    0.000000    -1.573330    -0.144236    -4.689253    -0.512749    7.420599    5.491435    2.824121    -6.400098    -20.672468    0.000000    0.000000    0.000000    
-9.907414    94.394730    216.571213    0.070632    -0.582731    177.583176    0.554149    -6.168432    -0.093682    -0.334811    -0.424741    -0.125270    1.351107    19.593155    -5.206737    -0.654245    1.313079    -5.462008    14.790901    0.070496    0.162949    -12.812075    -0.107445    1.413591    1.546297    1.674522    5.739566    -8.394064    1.801096    -2.781172    -17.269156    -1.663621    -0.440064    19.417971    -9.146004    -2.781196    0.437070    5.909649    6.894753    -11.984034    7.260230    -13.144801    4.164004    4.458298    -5.041710    -2.536444    2.788732    11.342225    -3.602560    -6.294998    11.314145    0.000000    0.000000    0.000000    -1.567964    -0.046707    -4.709941    -0.500577    7.343344    5.394134    2.851767    -6.342755    -20.641401    0.000000    0.000000    0.000000    
